<?xml version="1.0" encoding="iso-8859-1"?>
<!-- Generator: Adobe Illustrator 17.0.0, SVG Export Plug-In . SVG Version: 6.00 Build 0)  -->
<!DOCTYPE svg PUBLIC "-//W3C//DTD SVG 1.1//EN" "http://www.w3.org/Graphics/SVG/1.1/DTD/svg11.dtd">
<svg version="1.1" id="Layer_1" xmlns="http://www.w3.org/2000/svg" xmlns:xlink="http://www.w3.org/1999/xlink" x="0px" y="0px"
	 width="498.458px" height="408.899px" viewBox="0 0 498.458 408.899" style="enable-background:new 0 0 498.458 408.899;"
	 xml:space="preserve">
<g>
	<g>
		
			<image style="overflow:visible;" width="947" height="302" xlink:href="F004730ABA2ADB5F.png"  transform="matrix(0.24 0 0 0.24 102.9099 336.4794)">
		</image>
	</g>
	<linearGradient id="SVGID_1_" gradientUnits="userSpaceOnUse" x1="130.6271" y1="446.065" x2="319.0164" y2="337.2984">
		<stop  offset="0" style="stop-color:#FFFFFF"/>
		<stop  offset="0.0826" style="stop-color:#F0F0F1"/>
		<stop  offset="0.1837" style="stop-color:#E9EAEB"/>
		<stop  offset="0.3544" style="stop-color:#E7E8E9"/>
		<stop  offset="0.4116" style="stop-color:#E5E6E7"/>
		<stop  offset="0.4322" style="stop-color:#E0E1E2"/>
		<stop  offset="0.4469" style="stop-color:#D6D7D9"/>
		<stop  offset="0.4587" style="stop-color:#C8CACC"/>
		<stop  offset="0.4654" style="stop-color:#BDBEC1"/>
		<stop  offset="0.4665" style="stop-color:#BFC1C3"/>
		<stop  offset="0.4771" style="stop-color:#D1D2D4"/>
		<stop  offset="0.4887" style="stop-color:#DDDEE0"/>
		<stop  offset="0.5024" style="stop-color:#E4E5E6"/>
		<stop  offset="0.5226" style="stop-color:#E7E8E9"/>
		<stop  offset="0.9028" style="stop-color:#F2F2F3"/>
		<stop  offset="1" style="stop-color:#939598"/>
	</linearGradient>
	<path style="fill:url(#SVGID_1_);" d="M228.854,339.984c0,0,5.484,23.803,7.465,32.955c1.979,9.155-6.778,18.072-19.035,19.225
		c-12.256,1.152-108.97,5.396-112.805,5.704c-3.835,0.31,2.168,3.732,5.537,3.917c2.02,0.108,90.993,3.184,99.289,3.294
		c8.296,0.109,17.508,0.471,30.729-0.405c13.225-0.875,67.244-4.186,79.47-5.133c12.225-0.945,11.563-21.668,10.407-26.746
		c-1.155-5.079-11.068-35.797-11.068-35.797L228.854,339.984z"/>
	<linearGradient id="SVGID_2_" gradientUnits="userSpaceOnUse" x1="214.4781" y1="403.3202" x2="214.4781" y2="337.0209">
		<stop  offset="0.1198" style="stop-color:#D1D3D4"/>
		<stop  offset="0.1737" style="stop-color:#AFB1B4"/>
		<stop  offset="0.217" style="stop-color:#9B9D9F"/>
		<stop  offset="0.2428" style="stop-color:#939598"/>
		<stop  offset="0.2681" style="stop-color:#A2A4A6"/>
		<stop  offset="0.3356" style="stop-color:#C7C9CB"/>
		<stop  offset="0.3878" style="stop-color:#DEDFE0"/>
		<stop  offset="0.418" style="stop-color:#E7E8E9"/>
		<stop  offset="0.6579" style="stop-color:#BFC0C3"/>
		<stop  offset="0.883" style="stop-color:#9FA1A3"/>
		<stop  offset="1" style="stop-color:#939598"/>
	</linearGradient>
	<path style="fill:url(#SVGID_2_);" d="M224.772,337.324c0,0,5.484,23.803,7.465,32.955c1.978,9.153-6.777,18.072-19.033,19.225
		c-12.255,1.153-104.398,7.931-108.231,8.239c-3.834,0.31-0.155,1.46,1.864,1.526c2.022,0.064,93.964,3.857,102.261,3.965
		c8.295,0.109,9.169,0.267,22.392-0.608c13.226-0.878,76.375-6.993,86.212-8.546c9.838-1.549,8.246-17.805,7.093-22.884
		c-1.157-5.078-11.571-34.175-11.571-34.175L224.772,337.324z"/>
	
		<linearGradient id="SVGID_3_" gradientUnits="userSpaceOnUse" x1="178.6669" y1="403.994" x2="188.0008" y2="47.547" gradientTransform="matrix(0.9992 0.0405 -0.0405 0.9992 80.9809 -68.1217)">
		<stop  offset="0" style="stop-color:#6D6F71"/>
		<stop  offset="0.0155" style="stop-color:#6F7073"/>
		<stop  offset="0.0234" style="stop-color:#757679"/>
		<stop  offset="0.0295" style="stop-color:#7F8183"/>
		<stop  offset="0.0348" style="stop-color:#8D8F91"/>
		<stop  offset="0.0396" style="stop-color:#A0A2A4"/>
		<stop  offset="0.0439" style="stop-color:#B8BABC"/>
		<stop  offset="0.0479" style="stop-color:#D6D7D9"/>
		<stop  offset="0.0515" style="stop-color:#F8F8F9"/>
		<stop  offset="0.0519" style="stop-color:#FFFFFF"/>
		<stop  offset="0.0813" style="stop-color:#D0D1D3"/>
		<stop  offset="0.1105" style="stop-color:#A7AAAC"/>
		<stop  offset="0.2343" style="stop-color:#B5B7B9"/>
		<stop  offset="0.4264" style="stop-color:#C5C6C8"/>
		<stop  offset="0.6235" style="stop-color:#CED0D1"/>
		<stop  offset="0.8315" style="stop-color:#D1D3D4"/>
		<stop  offset="0.9401" style="stop-color:#B0B2B5"/>
		<stop  offset="0.9683" style="stop-color:#A7AAAC"/>
		<stop  offset="0.9689" style="stop-color:#ACAEB1"/>
		<stop  offset="0.9723" style="stop-color:#C9CACC"/>
		<stop  offset="0.9759" style="stop-color:#DFE0E1"/>
		<stop  offset="0.9794" style="stop-color:#EFF0F0"/>
		<stop  offset="0.9831" style="stop-color:#F9FAFA"/>
		<stop  offset="0.987" style="stop-color:#FFFFFF"/>
		<stop  offset="0.9881" style="stop-color:#F4F5F5"/>
		<stop  offset="0.9899" style="stop-color:#DFE1E2"/>
		<stop  offset="0.9922" style="stop-color:#BEC0C2"/>
		<stop  offset="0.9949" style="stop-color:#929496"/>
		<stop  offset="0.9979" style="stop-color:#5C5D5F"/>
		<stop  offset="1" style="stop-color:#000000"/>
	</linearGradient>
	<path style="fill:url(#SVGID_3_);" d="M488.935,1.83l5.505,2.71c1.52,0.616,4.09,3.076,4.016,6.019
		c0,0-12.163,299.965-12.522,310.439c-0.36,10.503-14.364,16.899-28.036,16.632l-421.334-9.006
		c-38.184-1.194-33.391-3.749-33.391-3.749L48.048,70.782L488.935,1.83z"/>
	<path d="M494.764,13.009c0.435-13.097-12.624-13.185-14.517-12.942L45.753,70.61c-8.697,1.289-10.809,7.628-11.555,13.384
		L0.999,323.134h0.029l-0.933,6.771c-0.435,4.227,0.151,11.009,11.867,11.484l448.885-3.765c7.125,0.105,20.522-5.483,21.484-19.86
		l0.289-6.992l0.016-0.009l0.288-7.124C486.848,207.89,494.423,23.252,494.764,13.009z"/>
	<polygon style="fill:#FFFFFF;" points="468.931,312.632 483.369,18.586 43.255,86.519 11.217,325.267 	"/>
	<defs>
		<filter id="Adobe_OpacityMaskFilter" filterUnits="userSpaceOnUse" x="175.883" y="0" width="318.9" height="326.616">
			<feColorMatrix  type="matrix" values="1 0 0 0 0  0 1 0 0 0  0 0 1 0 0  0 0 0 1 0"/>
		</filter>
	</defs>
	<mask maskUnits="userSpaceOnUse" x="175.883" y="0" width="318.9" height="326.616" id="SVGID_4_">
		<g style="filter:url(#Adobe_OpacityMaskFilter);">
			
				<linearGradient id="SVGID_5_" gradientUnits="userSpaceOnUse" x1="172.4599" y1="395.5345" x2="172.4599" y2="51.837" gradientTransform="matrix(0.9992 0.0405 -0.0405 0.9992 80.9809 -68.1217)">
				<stop  offset="0" style="stop-color:#000000"/>
				<stop  offset="0.1754" style="stop-color:#0C0C0D"/>
				<stop  offset="0.3078" style="stop-color:#272627"/>
				<stop  offset="0.4261" style="stop-color:#3F3E40"/>
				<stop  offset="0.5362" style="stop-color:#4F5051"/>
				<stop  offset="0.6407" style="stop-color:#606162"/>
				<stop  offset="0.7409" style="stop-color:#717172"/>
				<stop  offset="0.8377" style="stop-color:#818282"/>
				<stop  offset="0.9295" style="stop-color:#909090"/>
				<stop  offset="1" style="stop-color:#999999"/>
			</linearGradient>
			<path style="fill:url(#SVGID_5_);" d="M-6.714,324.191L377.269,14.365L480.256,0.044c1.893-0.207,14.952-0.132,14.517,11.083
				c-0.438,11.256-15.013,315.488-15.013,315.488L-6.714,324.191z"/>
		</g>
	</mask>
	<path style="mask:url(#SVGID_4_);fill:#FFFFFF;" d="M175.883,324.191L377.269,14.365L480.256,0.044
		c1.893-0.207,14.952-0.132,14.517,11.083c-0.438,11.256-15.013,315.488-15.013,315.488L175.883,324.191z"/>
</g>
<g>
	<rect x="720.03" y="574.055" style="fill:#BCBEC0;" width="1.39" height="4.581"/>
	<rect x="716.529" y="574.055" style="fill:#BCBEC0;" width="1.39" height="4.581"/>
	<rect x="712.987" y="574.055" style="fill:#BCBEC0;" width="1.39" height="4.581"/>
	<rect x="484.475" y="574.005" style="fill:#BCBEC0;" width="1.282" height="4.227"/>
	<rect x="481.243" y="574.005" style="fill:#BCBEC0;" width="1.282" height="4.227"/>
	<rect x="477.976" y="574.005" style="fill:#BCBEC0;" width="1.281" height="4.227"/>
</g>
</svg>
