<svg xmlns="http://www.w3.org/2000/svg" viewBox="0 0 133.48 105.72"><defs><style>.cls-1{fill:#fff;stroke:#000;stroke-miterlimit:10;stroke-width:0.25px;}</style></defs><title>pc_mini</title><g id="레이어_2" data-name="레이어 2"><g id="Layer_1" data-name="Layer 1"><path class="cls-1" d="M86.82,105.1c-.46-.5-4.45-.28-5.08-1-1.09-1.33-2.19-12.23-2.19-12.23H53.93s-1.09,10.9-2.19,12.23c-.63.76-4.63.55-5.08,1-.14.16.44.41,3.58.48.8,0,32.21,0,33,0C86.38,105.52,87,105.26,86.82,105.1Z"/><path class="cls-1" d="M130.32.13H3.26A3.12,3.12,0,0,0,.13,3.23V88.94A2.91,2.91,0,0,0,3,91.83H130.44a2.91,2.91,0,0,0,2.91-2.89V3.14A3,3,0,0,0,130.32.13Z"/><path class="cls-1" d="M133.35,79.47V3.14a3,3,0,0,0-3-3H3.26A3.12,3.12,0,0,0,.13,3.23V79.47Z"/><rect class="cls-1" x="5.5" y="5.16" width="122.47" height="69.29"/><circle class="cls-1" cx="66.74" cy="2.1" r="0.76"/></g></g></svg>