<svg xmlns="http://www.w3.org/2000/svg" viewBox="0 0 536.65 86.5">
    <defs>
        <link href="../css/designnest.css" type="text/css" rel="stylesheet" xmlns="http://www.w3.org/1999/xhtml"/>
    </defs>
    <g id="nest_text" data-name="nest_text">
        <path id="txt01" class="path" fill="#fff" d="M23.12.5C35.88.5,45.86,7,45.86,24.4v37c0,17.4-10,23.9-22.74,23.9H2.59a2,2,0,0,1-2.09-2V2.47A2,2,0,0,1,2.59.5ZM4.68,4.68V81.13H23.12c11.6,0,18.56-6.26,18.56-19.72v-37c0-13.46-7-19.72-18.56-19.72Z"/>
        <path id="txt02" class="path" fill="#fff" d="M67.33,40.76H85.89a2,2,0,0,1,2,2.2,1.88,1.88,0,0,1-2,2H67.33v36.2h39.21a2,2,0,0,1,2,2.2,1.88,1.88,0,0,1-2,2H65.24a2,2,0,0,1-2.09-2.09V2.59A2,2,0,0,1,65.24.5h41.3a1.88,1.88,0,0,1,2,2,2,2,0,0,1-2,2.2H67.33Z"/>
        <path id="txt03" class="path" fill="#fff" d="M156.19,63c0-29.58-39.1-13.69-39.1-42.46C117.1,3.75,130.44.5,140,.5s18.33,3.37,18.33,6c0,.93-1,2.55-2.09,2.55-1.62,0-5.92-4.41-16.36-4.41-8.7,0-18.56,3-18.56,15.55,0,24.94,39.1,9.4,39.1,42.46,0,16.47-9.63,23.32-23,23.32C122.55,86,115,77.42,115,74.28a2.64,2.64,0,0,1,2-2.44c2.2,0,4.18,10,19.84,10C149.46,81.83,156.19,75.33,156.19,63Z"/>
        <path id="txt04" class="path" fill="#fff" d="M174.41,2.47a2.09,2.09,0,0,1,4.18,0V83.22a2.09,2.09,0,0,1-4.18,0Z"/>
        <path id="txt05" class="path" fill="#fff" d="M218.61,44.93a2.09,2.09,0,0,1,0-4.18h20.65a2,2,0,0,1,2,2.2V62.1c0,17.4-10,23.9-22.74,23.9s-22.62-6.5-22.62-23.9V24.4C195.87,7,205.73.5,218.49.5,232.76.5,241.23,9,241.23,19.64a2.09,2.09,0,1,1-4.18.23c-1.39-10.44-8.35-15.2-18.56-15.2C206.89,4.68,200,10.94,200,24.4V62.1c0,13.46,6.84,19.72,18.45,19.72s18.56-6.26,18.56-19.72V44.93Z"/>
        <path id="txt06" class="path" fill="#fff" d="M298.31,75V2.47a2.09,2.09,0,0,1,4.18,0V83.22a2,2,0,0,1-2.09,2.09c-1.51,0-2.55-2.55-3.36-4.18L261.31,10.71V83.22a2.09,2.09,0,0,1-4.18,0V2.47c0-1.51.93-2,2.09-2,1.51,0,3,3.13,3.6,4.18Z"/>
        <path id="txt07" class="path" fill="#fff" d="M361.78,75V2.47a2.09,2.09,0,0,1,4.18,0V83.22a2,2,0,0,1-2.09,2.09c-1.51,0-2.55-2.55-3.36-4.18L324.77,10.71V83.22a2.09,2.09,0,0,1-4.18,0V2.47c0-1.51.93-2,2.09-2,1.51,0,3,3.13,3.6,4.18Z"/>
        <path id="txt08" class="path" fill="#fff" d="M388.23,40.76h18.56a2,2,0,0,1,2,2.2,1.88,1.88,0,0,1-2,2H388.23v36.2h39.21a2,2,0,0,1,2,2.2,1.88,1.88,0,0,1-2,2h-41.3a2,2,0,0,1-2.09-2.09V2.59A2,2,0,0,1,386.14.5h41.3a1.88,1.88,0,0,1,2,2,2,2,0,0,1-2,2.2H388.23Z"/>
        <path id="txt09" class="path" fill="#fff" d="M477.1,63c0-29.58-39.1-13.69-39.1-42.46C438,3.75,451.34.5,460.86.5s18.33,3.37,18.33,6c0,.93-1,2.55-2.09,2.55-1.62,0-5.92-4.41-16.36-4.41-8.7,0-18.56,3-18.56,15.55,0,24.94,39.1,9.4,39.1,42.46,0,16.47-9.63,23.32-23,23.32-14.85,0-22.39-8.58-22.39-11.72a2.64,2.64,0,0,1,2-2.44c2.2,0,4.18,10,19.84,10C470.37,81.83,477.1,75.33,477.1,63Z"/>
        <path id="txt10" class="path" fill="#fff" d="M488.7,4.68a2.09,2.09,0,0,1,0-4.18h45.36a1.92,1.92,0,0,1,2.09,2,2,2,0,0,1-2.09,2.2H513.53V83.22a2.09,2.09,0,0,1-4.18,0V4.68Z"/>
    </g>
</svg>
