<svg xmlns="http://www.w3.org/2000/svg" xmlns:xlink="http://www.w3.org/1999/xlink" viewBox="0 0 1000.13 2025.62">
    <defs>
        <style>
            path, rect, circle, polygon{stroke:#666; fill:none;stroke-width:3;stroke-dashoffset: 10000;stroke-dasharray: 10000;}
            .body{fill:#333;}
            .btn_home{stroke-width:10}
            .holl{fill:#000;}
        </style>
    </defs>
    <title>iphone_frame</title>
    <g id="Gold">
        <path class="" d="M137.87,2016.53c-70.28,0-123.28-52.55-123.28-122.24V138.15c0-37.26,11.43-68.79,33.07-91.2C70.39,23.4,103.71,11,144,11H855.47c38.45,0,70.73,11.19,93.35,32.36,23.83,22.31,36.43,55.51,36.43,96v1745.6c0,40.71-12.46,74.36-36,97.33-23,22.42-56.08,34.27-95.63,34.27Z" />
        <path class="" d="M994.77,388V138.39c0-43.2-13.64-78.8-39.44-103C930.92,12.58,896.39.5,855.47.5H144C101.06.5,65.38,14,40.81,39.4c-23.38,24.22-35.74,58-35.74,97.82v250a22,22,0,0,1,2.16,9.53V675a17.47,17.47,0,0,1-2.16,8.44V1893.36c0,75.12,57.09,131.76,132.8,131.76H445.82c7-2.86,14.72-3.46,22.78-3.46h62.64c8.06,0,15.75.59,22.78,3.45H853.58c87.09,0,141.19-54.08,141.19-141.13V524.92a17.45,17.45,0,0,1-2.32-8.7V396.79A17.82,17.82,0,0,1,994.77,388Z" />
        <path class="screen" d="M62.57,1799a5,5,0,0,1-5-5V237a5,5,0,0,1,5-5l875.61.94a5,5,0,0,1,5,5V1795a5,5,0,0,1-5,5Z" />
        <path class="" d="M562.23,129.92H439.68a6.72,6.72,0,0,1-6.7-6.7h0a6.72,6.72,0,0,1,6.7-6.7H562.23a6.72,6.72,0,0,1,6.7,6.7h0A6.72,6.72,0,0,1,562.23,129.92Z" />
        <path class="cls-1" d="M447.58,1889a53.74,53.74,0,1,1,40,64.66A53.71,53.71,0,0,1,447.58,1889Z" />
        <circle class="" cx="499.92" cy="68.82" r="9.57" />
        <circle class="" cx="363.06" cy="123.21" r="14.23" />
        <circle class="" cx="363.06" cy="123.21" r="14.23" />
        <circle class="" cx="499.42" cy="1901.27" r="60.78" />
        <polygon class="" points="0.5 306.88 3.05 309.54 3.05 238.05 0.5 240.71 0.5 306.88" />
        <polygon class="" points="0.5 516.6 4.28 521.42 4.28 391.9 0.5 396.72 0.5 516.6" />
        <polygon class="" points="0.5 673.87 4.28 678.69 4.28 549.16 0.5 553.99 0.5 673.87" />
        <polygon class="" points="999.63 516.2 995.85 521.02 995.85 391.5 999.63 396.32 999.63 516.2" />
    </g>
</svg>