<svg xmlns="http://www.w3.org/2000/svg" viewBox="0 0 620.78 598">
    <defs><style>.cls-1{fill:#231815;}</style></defs><title>logo_svg_new</title>
    <g id="레이어_2" data-name="레이어 2"><g id="레이어_1-2" data-name="레이어 1">
        <path class="cls-1" d="M405.37,87.44c119,0,215.41,96.44,215.41,215.41a214.57,214.57,0,0,1-21.1,93.09q.08-3.19.09-6.4c0-132-107-239.05-239.05-239.05a238,238,0,0,0-143.9,48.16A215.34,215.34,0,0,1,405.37,87.44Z"/>              <path class="cls-1" d="M541.1,275.48c59.48,103,24.18,234.77-78.84,294.25A214.55,214.55,0,0,1,371.09,598q2.8-1.52,5.58-3.13c114.34-66,153.51-212.21,87.5-326.55A238,238,0,0,0,350.52,167.78,215.33,215.33,0,0,1,541.1,275.48Z"/>
        <path class="cls-1" d="M446.12,487c-59.48,103-191.22,138.33-294.25,78.85A214.57,214.57,0,0,1,81.8,501.06q2.72,1.67,5.5,3.27c114.34,66,260.54,26.84,326.55-87.5a238,238,0,0,0,30.24-148.7A215.33,215.33,0,0,1,446.12,487Z"/>
        <path class="cls-1" d="M215.41,510.56C96.45,510.56,0,414.12,0,295.15a214.57,214.57,0,0,1,21.1-93.09q-.08,3.19-.09,6.4c0,132,107,239.05,239.05,239.05A238,238,0,0,0,404,399.35,215.33,215.33,0,0,1,215.41,510.56Z"/><path class="cls-1" d="M79.68,322.52C20.2,219.5,55.5,87.75,158.53,28.27A214.55,214.55,0,0,1,249.7,0q-2.8,1.52-5.59,3.13c-114.34,66-153.51,212.21-87.5,326.55A238,238,0,0,0,270.27,430.21,215.34,215.34,0,0,1,79.68,322.52Z"/>
        <path class="cls-1" d="M174.67,111c59.48-103,191.23-138.33,294.25-78.85A214.57,214.57,0,0,1,539,96.94q-2.72-1.67-5.5-3.28c-114.34-66-260.54-26.84-326.55,87.5a238,238,0,0,0-30.24,148.7A215.34,215.34,0,0,1,174.67,111Z"/></g></g></svg>