<?xml version="1.0" encoding="iso-8859-1"?>
<!-- Generator: Adobe Illustrator 21.0.0, SVG Export Plug-In . SVG Version: 6.00 Build 0)  -->
<svg version="1.1" id="&#xB808;&#xC774;&#xC5B4;_1" xmlns="http://www.w3.org/2000/svg" xmlns:xlink="http://www.w3.org/1999/xlink"
	 x="0px" y="0px" viewBox="0 0 295.71 295.71" style="enable-background:new 0 0 295.71 295.71;" xml:space="preserve">
<title>자산 3</title>
<g id="&#xB808;&#xC774;&#xC5B4;_2">
	<g id="&#xB808;&#xC774;&#xC5B4;_1-2">
		<path style="fill:none;stroke:#231F20;stroke-miterlimit:10;" d="M44.16,100.74c-20.36,20.36-31.65,45.87-32.67,73.77
			c-0.491,14.638,1.716,29.241,6.51,43.08C-0.388,183.524-4.482,143.546,6.62,106.46c4.23-14.13,12.06-41,37.24-62.12
			c9.7-7.954,20.666-14.224,32.44-18.55c9-3.36,41.1-14.72,77.21-1.25c14.137,5.322,26.961,13.627,37.6,24.35
			c24.52,24.52,32.83,59.45,29.33,90.06c-3.173-25.377-19.394-47.243-42.76-57.64C158.32,70.87,134.27,66.77,110,69.76
			C84.36,72.91,61,83.91,44.16,100.74z"/>
		<path style="fill:none;stroke:#231F20;stroke-miterlimit:10;" d="M99.74,251.54c20.36,20.36,45.87,31.66,73.77,32.67
			c14.638,0.487,29.241-1.723,43.08-6.52c-34.063,18.395-74.041,22.496-111.13,11.4c-14.13-4.23-41-12.06-62.12-37.24
			c-7.954-9.7-14.224-20.666-18.55-32.44c-3.36-9-14.72-41.1-1.25-77.21c5.322-14.137,13.627-26.961,24.35-37.6
			C72.41,80.08,107.34,71.77,138,75.26C112.612,78.415,90.729,94.631,80.32,118c-10.45,19.37-14.55,43.41-11.56,67.72
			C71.91,211.35,82.91,234.72,99.74,251.54z"/>
		<path style="fill:none;stroke:#231F20;stroke-miterlimit:10;" d="M251.54,196c20.36-20.36,31.66-45.87,32.67-73.77
			c0.487-14.638-1.723-29.241-6.52-43.08c18.395,34.063,22.496,74.041,11.4,111.13c-4.23,14.13-12.06,41-37.24,62.12
			c-9.7,7.954-20.666,14.224-32.44,18.55c-9,3.36-41.1,14.72-77.21,1.25c-14.137-5.322-26.961-13.627-37.6-24.35
			c-24.52-24.52-32.83-59.45-29.33-90.06c3.18,25.356,19.387,47.202,42.73,57.6c19.37,10.45,43.41,14.55,67.72,11.56
			C211.35,223.8,234.72,212.8,251.54,196z"/>
		<path style="fill:none;stroke:#231F20;stroke-miterlimit:10;" d="M196,44.16c-20.39-20.36-45.9-31.65-73.8-32.67
			c-14.638-0.491-29.241,1.716-43.08,6.51C113.186-0.388,153.164-4.482,190.25,6.62c14.13,4.23,41,12.06,62.12,37.24
			c7.954,9.7,14.224,20.666,18.55,32.44c3.36,9,14.72,41.1,1.25,77.21c-5.322,14.137-13.627,26.961-24.35,37.6
			c-24.52,24.52-59.45,32.83-90.06,29.33c25.377-3.173,47.243-19.394,57.64-42.76c10.45-19.37,14.55-43.41,11.56-67.72
			C223.8,84.36,212.8,61,196,44.16z"/>
	</g>
</g>
</svg>
