<svg xmlns="http://www.w3.org/2000/svg" viewBox="-2 -2 300 300" preserveAspectRatio="none">
    <defs>
        <link href="../css/designnest.css" type="text/css" rel="stylesheet"
          xmlns="http://www.w3.org/1999/xhtml"/>
    </defs>
    <g id="logo_path" data-name="">
        <path id="path1" class="path" d="M44.16,100.74C23.8,121.1,12.51,146.61,11.49,174.51A119.4,119.4,0,0,0,18,217.59,145.88,145.88,0,0,1,6.62,106.46c4.23-14.13,12.06-41,37.24-62.12A112.18,112.18,0,0,1,76.3,25.79c9-3.36,41.1-14.72,77.21-1.25a105.16,105.16,0,0,1,37.6,24.35c24.52,24.52,32.83,59.45,29.33,90.06a73,73,0,0,0-42.76-57.64C158.32,70.87,134.27,66.77,110,69.76,84.36,72.91,61,83.91,44.16,100.74Z"/>
        <path id="path2" class="path" d="M99.74,251.54c20.36,20.36,45.87,31.66,73.77,32.67a119.4,119.4,0,0,0,43.08-6.52,145.88,145.88,0,0,1-111.13,11.4c-14.13-4.23-41-12.06-62.12-37.24a112.18,112.18,0,0,1-18.55-32.44c-3.36-9-14.72-41.1-1.25-77.21a105.16,105.16,0,0,1,24.35-37.6C72.41,80.08,107.34,71.77,138,75.26A73,73,0,0,0,80.32,118c-10.45,19.37-14.55,43.41-11.56,67.72C71.91,211.35,82.91,234.72,99.74,251.54Z"/>
        <path id="path3" class="path" d="M251.54,196c20.36-20.36,31.66-45.87,32.67-73.77a119.4,119.4,0,0,0-6.52-43.08,145.88,145.88,0,0,1,11.4,111.13c-4.23,14.13-12.06,41-37.24,62.12a112.18,112.18,0,0,1-32.44,18.55c-9,3.36-41.1,14.72-77.21,1.25a105.16,105.16,0,0,1-37.6-24.35c-24.52-24.52-32.83-59.45-29.33-90.06A73,73,0,0,0,118,215.39c19.37,10.45,43.41,14.55,67.72,11.56C211.35,223.8,234.72,212.8,251.54,196Z"/>
        <path id="path4" class="path" d="M196,44.16C175.61,23.8,150.1,12.51,122.2,11.49A119.4,119.4,0,0,0,79.12,18,145.88,145.88,0,0,1,190.25,6.62c14.13,4.23,41,12.06,62.12,37.24A112.18,112.18,0,0,1,270.92,76.3c3.36,9,14.72,41.1,1.25,77.21a105.16,105.16,0,0,1-24.35,37.6c-24.52,24.52-59.45,32.83-90.06,29.33a73,73,0,0,0,57.64-42.76c10.45-19.37,14.55-43.41,11.56-67.72C223.8,84.36,212.8,61,196,44.16Z"/>
    </g>
</svg>
