    <svg xmlns="http://www.w3.org/2000/svg" viewBox="0 0 738.795 81" preserveAspectRatio="none">
        <defs>
            <link href="../css/designnest.css" type="text/css" rel="stylesheet"
                  xmlns="http://www.w3.org/1999/xhtml"/>
        </defs>
    <g id="design">
    <path id="d" class="path" d="M65.504,40.358c0,5.97-0.892,11.335-2.674,16.1
        c-1.783,4.769-4.294,8.825-7.532,12.172c-3.239,3.349-7.114,5.915-11.626,7.695c-4.512,1.784-9.515,2.676-15.009,2.676H0.5V1.77
        h28.163c5.494,0,10.498,0.894,15.009,2.674c4.512,1.784,8.387,4.349,11.626,7.697c3.238,3.347,5.749,7.405,7.532,12.17
        C64.612,29.08,65.504,34.428,65.504,40.358z M59.719,40.358c0-5.383-0.746-10.187-2.238-14.409
        c-1.492-4.221-3.594-7.785-6.305-10.697c-2.71-2.91-5.976-5.129-9.797-6.659c-3.821-1.528-8.06-2.292-12.717-2.292H6.122V74.47
        h22.541c4.658,0,8.897-0.764,12.717-2.292s7.086-3.747,9.797-6.659c2.71-2.91,4.812-6.476,6.305-10.697
        C58.973,50.602,59.719,45.78,59.719,40.358z"/>
    <path id="e" class="path" d="M129.745,1.77v4.639H89.083v31.22h33.84v4.531h-33.84v32.202
        h40.662v4.639H83.46V1.77H129.745z"/>
    <path id="s" class="path" d="M185.36,11.158c-0.328,0.62-0.801,0.929-1.42,0.929
        c-0.474,0-1.086-0.338-1.834-1.011c-0.748-0.673-1.762-1.42-3.039-2.237c-1.277-0.821-2.875-1.574-4.791-2.267
        c-1.916-0.689-4.28-1.036-7.091-1.036c-2.811,0-5.284,0.4-7.419,1.199c-2.136,0.803-3.925,1.894-5.366,3.276
        c-1.442,1.382-2.537,2.985-3.285,4.804c-0.749,1.819-1.122,3.729-1.122,5.73c0,2.621,0.555,4.785,1.667,6.494
        c1.11,1.713,2.578,3.166,4.4,4.367c1.822,1.201,3.89,2.21,6.203,3.029c2.314,0.819,4.691,1.629,7.133,2.429
        c2.44,0.801,4.818,1.684,7.132,2.647c2.314,0.965,4.382,2.175,6.203,3.63c1.822,1.455,3.289,3.248,4.401,5.376
        c1.111,2.128,1.667,4.776,1.667,7.94c0,3.241-0.555,6.286-1.665,9.143c-1.11,2.857-2.721,5.341-4.831,7.451
        c-2.111,2.111-4.694,3.774-7.75,4.992c-3.057,1.219-6.55,1.83-10.48,1.83c-5.095,0-9.479-0.903-13.154-2.702
        c-3.675-1.802-6.895-4.266-9.661-7.396l1.529-2.402c0.436-0.544,0.945-0.817,1.528-0.817c0.328,0,0.747,0.217,1.257,0.654
        c0.51,0.437,1.129,0.974,1.858,1.61c0.728,0.64,1.603,1.329,2.623,2.075c1.02,0.746,2.204,1.439,3.552,2.075
        c1.348,0.636,2.896,1.173,4.645,1.61c1.749,0.437,3.735,0.654,5.958,0.654c3.06,0,5.794-0.464,8.198-1.391
        c2.405-0.929,4.436-2.191,6.094-3.793c1.659-1.601,2.924-3.502,3.799-5.703c0.874-2.201,1.312-4.559,1.312-7.068
        c0-2.729-0.556-4.976-1.667-6.741c-1.112-1.766-2.579-3.239-4.401-4.422c-1.821-1.181-3.889-2.173-6.203-2.974
        c-2.313-0.801-4.691-1.583-7.132-2.347c-2.442-0.764-4.819-1.619-7.133-2.566c-2.313-0.945-4.381-2.157-6.203-3.628
        c-1.822-1.475-3.289-3.312-4.4-5.515c-1.111-2.2-1.667-4.957-1.667-8.269c0-2.583,0.491-5.074,1.476-7.476s2.423-4.52,4.317-6.359
        c1.895-1.837,4.236-3.31,7.024-4.422c2.787-1.109,5.966-1.663,9.537-1.663c4.007,0,7.606,0.636,10.794,1.91s6.092,3.221,8.714,5.84
        L185.36,11.158z"/>
    <path  id="i" class="path" d="M212.649,79.001h-5.621V1.77h5.621V79.001z"/>
    <path  id="g" class="path" d="M270.83,75.344c2.655,0,5.076-0.137,7.259-0.409
        c2.184-0.274,4.212-0.682,6.086-1.229c1.874-0.545,3.656-1.208,5.349-1.992s3.393-1.665,5.104-2.647V48.271h-14.846
        c-0.401,0-0.736-0.128-1.01-0.386c-0.273-0.258-0.409-0.553-0.409-0.885v-3.095h21.341V71.4c-1.929,1.35-3.93,2.553-6.004,3.61
        c-2.073,1.055-4.293,1.94-6.658,2.651c-2.366,0.711-4.913,1.258-7.642,1.638c-2.729,0.384-5.713,0.576-8.951,0.576
        c-5.567,0-10.653-0.938-15.255-2.811c-4.603-1.874-8.551-4.531-11.843-7.97c-3.294-3.438-5.85-7.594-7.668-12.471
        c-1.82-4.877-2.729-10.296-2.729-16.266c0-5.966,0.909-11.38,2.729-16.237c1.818-4.857,4.402-9.006,7.75-12.444
        c3.347-3.438,7.413-6.094,12.199-7.968c4.784-1.874,10.142-2.811,16.074-2.811c2.948,0,5.667,0.199,8.159,0.601
        c2.492,0.4,4.812,0.991,6.959,1.773c2.146,0.782,4.148,1.746,6.003,2.892c1.856,1.148,3.639,2.466,5.349,3.958l-1.474,2.4
        c-0.327,0.545-0.783,0.819-1.364,0.819c-0.327,0-0.637-0.073-0.927-0.219c-0.545-0.219-1.337-0.727-2.375-1.528
        c-1.037-0.801-2.438-1.638-4.203-2.51c-1.765-0.874-3.975-1.656-6.631-2.349c-2.657-0.689-5.877-1.036-9.661-1.036
        c-5.022,0-9.551,0.801-13.591,2.4c-4.038,1.603-7.487,3.894-10.343,6.879c-2.857,2.983-5.058,6.622-6.604,10.916
        c-1.547,4.292-2.319,9.114-2.319,14.462c0,5.458,0.782,10.353,2.347,14.682c1.563,4.332,3.756,7.995,6.576,10.998
        c2.82,3.003,6.203,5.303,10.152,6.904C261.706,74.545,266.063,75.344,270.83,75.344z"/>
    <path id="n" class="path" d="M323.279,1.96c0.29,0.128,0.6,0.41,0.928,0.847l49.995,66.915
        c-0.109-1.093-0.164-2.146-0.164-3.166V1.77h4.913v77.231h-2.675c-0.837,0-1.51-0.362-2.019-1.091l-50.213-67.023
        c0.109,1.091,0.164,2.128,0.164,3.109v65.005h-4.858V1.77h2.729C322.588,1.77,322.988,1.834,323.279,1.96z"/>
</g>
<g id="nest">
    <path  id="path7" class="path" d="M487.722,2.204c0.29,0.128,0.601,0.409,0.928,0.846l49.995,66.915
        c-0.109-1.093-0.164-2.148-0.164-3.166V2.012h4.913v77.231h-2.675c-0.837,0-1.51-0.362-2.019-1.091l-50.213-67.025
        c0.109,1.093,0.164,2.13,0.164,3.111v65.005h-4.858V2.012h2.729C487.031,2.012,487.431,2.076,487.722,2.204z"/>
    <path  id="path8" class="path" d="M612.6,2.012v4.639h-40.663v31.22h33.84v4.531h-33.84v32.202
        H612.6v4.639h-46.284V2.012H612.6z"/>
    <path  id="path9" class="path" d="M668.216,11.4c-0.329,0.62-0.803,0.927-1.421,0.927
        c-0.473,0-1.086-0.336-1.834-1.009s-1.762-1.42-3.038-2.239c-1.279-0.817-2.875-1.572-4.792-2.263
        c-1.917-0.691-4.28-1.038-7.091-1.038s-5.284,0.4-7.419,1.201c-2.136,0.8-3.925,1.892-5.366,3.274
        c-1.443,1.382-2.537,2.983-3.287,4.802c-0.748,1.821-1.121,3.731-1.121,5.732c0,2.619,0.556,4.785,1.667,6.496
        c1.11,1.709,2.578,3.164,4.401,4.365c1.821,1.201,3.889,2.21,6.202,3.029c2.315,0.819,4.692,1.629,7.133,2.429
        c2.441,0.801,4.818,1.684,7.132,2.647c2.313,0.965,4.381,2.175,6.204,3.63c1.821,1.455,3.287,3.248,4.399,5.376
        s1.668,4.776,1.668,7.942c0,3.239-0.556,6.286-1.665,9.141c-1.11,2.857-2.722,5.341-4.831,7.451
        c-2.111,2.111-4.694,3.774-7.75,4.992c-3.058,1.219-6.551,1.83-10.481,1.83c-5.094,0-9.477-0.901-13.153-2.702
        c-3.676-1.802-6.895-4.266-9.66-7.396l1.528-2.4c0.437-0.547,0.945-0.819,1.528-0.819c0.327,0,0.746,0.219,1.258,0.654
        c0.508,0.437,1.128,0.975,1.858,1.611c0.728,0.636,1.603,1.329,2.622,2.073c1.02,0.746,2.203,1.437,3.553,2.073
        c1.347,0.638,2.896,1.174,4.644,1.611c1.748,0.435,3.735,0.654,5.959,0.654c3.059,0,5.792-0.464,8.198-1.391
        c2.406-0.927,4.436-2.192,6.094-3.793c1.659-1.601,2.924-3.502,3.799-5.703c0.874-2.201,1.311-4.557,1.311-7.069
        c0-2.729-0.554-4.975-1.667-6.739c-1.112-1.766-2.58-3.239-4.401-4.422c-1.821-1.181-3.889-2.173-6.202-2.974
        c-2.313-0.8-4.692-1.583-7.132-2.347c-2.443-0.764-4.82-1.619-7.135-2.566c-2.313-0.945-4.381-2.155-6.202-3.63
        c-1.821-1.473-3.289-3.31-4.401-5.511c-1.11-2.201-1.667-4.959-1.667-8.27c0-2.582,0.492-5.074,1.476-7.476
        s2.422-4.522,4.317-6.359c1.896-1.837,4.236-3.31,7.023-4.42c2.788-1.11,5.966-1.665,9.537-1.665c4.008,0,7.608,0.636,10.795,1.91
        c3.187,1.274,6.092,3.219,8.713,5.84L668.216,11.4z"/>
    <path  id="path10" class="path" d="M738.295,2.012v4.749h-27.126v72.481h-5.568V6.761h-27.29V2.012
        H738.295z"/>
</g>

    <g id="nest_logo">
        <path id="logo_path01" class="path" d="M402.402,27.712c-5.527,5.527-8.591,12.451-8.868,20.024
            c-0.133,3.973,0.466,7.937,1.767,11.694c-4.991-9.247-6.103-20.099-3.089-30.166c1.148-3.836,3.274-11.129,10.109-16.862
            c2.633-2.159,5.61-3.861,8.806-5.035c2.443-0.912,11.156-3.996,20.958-0.339c3.837,1.445,7.318,3.699,10.206,6.61
            c6.656,6.656,8.912,16.137,7.961,24.446c-0.861-6.888-5.264-12.824-11.607-15.646c-5.255-2.834-11.783-3.947-18.371-3.135
            C413.314,20.158,406.973,23.143,402.402,27.712z"/>
        <path id="logo_path02" class="path" d="M417.488,68.646c5.527,5.527,12.451,8.594,20.024,8.868
            c3.974,0.132,7.937-0.468,11.694-1.77c-9.246,4.993-20.098,6.106-30.166,3.094c-3.836-1.148-11.129-3.274-16.862-10.109
            c-2.159-2.633-3.861-5.61-5.035-8.806c-0.912-2.443-3.996-11.156-0.339-20.958c1.445-3.837,3.699-7.318,6.61-10.206
            c6.656-6.656,16.137-8.912,24.46-7.964c-6.891,0.857-12.831,5.258-15.657,11.602c-2.837,5.258-3.95,11.783-3.138,18.382
            C409.934,57.736,412.92,64.08,417.488,68.646z"/>
        <path id="logo_path03" class="path" d="M458.694,53.57c5.527-5.527,8.594-12.451,8.868-20.024
            c0.132-3.974-0.468-7.937-1.77-11.694c4.993,9.246,6.106,20.098,3.094,30.166c-1.148,3.836-3.274,11.129-10.109,16.862
            c-2.633,2.159-5.61,3.861-8.806,5.035c-2.443,0.912-11.156,3.996-20.958,0.339c-3.837-1.445-7.318-3.699-10.206-6.61
            c-6.656-6.656-8.912-16.137-7.961-24.446c0.863,6.883,5.262,12.813,11.599,15.635c5.258,2.837,11.783,3.95,18.382,3.138
            C447.784,61.116,454.128,58.13,458.694,53.57z"/>
        <path id="logo_path04" class="path" d="M443.618,12.353c-5.535-5.527-12.459-8.591-20.033-8.868
            c-3.973-0.133-7.937,0.466-11.694,1.767c9.247-4.991,20.099-6.103,30.166-3.089c3.836,1.148,11.129,3.274,16.862,10.109
            c2.159,2.633,3.861,5.61,5.035,8.806c0.912,2.443,3.996,11.156,0.339,20.958c-1.445,3.837-3.699,7.318-6.61,10.206
            c-6.656,6.656-16.137,8.912-24.446,7.961c6.888-0.861,12.824-5.264,15.646-11.607c2.837-5.258,3.95-11.783,3.138-18.382
            C451.164,23.266,448.178,16.925,443.618,12.353z"/>
    </g>
</svg>
