<svg xmlns="http://www.w3.org/2000/svg" viewBox="0 0 48.94 86.46">
    <defs>
        <link href="../css/designnest.css" type="text/css" rel="stylesheet" xmlns="http://www.w3.org/1999/xhtml"/>
    </defs>
    <g id="ico_scroll">
        <path id="scroll_body" class="scroll_body" d="M26.64.5h-3.7A24.16,24.16,0,0,0,7.74,7.6,23.43,23.43,0,0,0,.84,22.4C.34,29,.54,35.9.54,43.2c0,6.8-.2,14.1.3,20.8A23.67,23.67,0,0,0,23,85.9a23.57,23.57,0,0,0,24.1-15.3,41.84,41.84,0,0,0,1.3-6.2V22.2C46.54,9.6,39.24,2.4,26.64.5Z"/>
        <path id="wheel" class="wheel" d="M32.94,30.1l-5.8,5.8c0-6.7-.1-16.9-.1-20.9,0-2.9-4.9-2.8-4.9.1V35.8L16.34,30c-2-2-5.6,1.6-3.6,3.6.7.7,5.5,5.3,9.6,9.4a1.82,1.82,0,0,0,1.1,1,3.55,3.55,0,0,0,.9.4,1.92,1.92,0,0,0,2-.5c.8-.8,6-6.2,10.2-10.4C38.54,31.4,35,28,32.94,30.1Z"/>
    </g>
</svg>
